<svg xmlns="http://www.w3.org/2000/svg" viewBox="0 0 32 32" width="32" height="32">
  <defs>
    <linearGradient id="dnaGrad" x1="0%" y1="0%" x2="100%" y2="100%">
      <stop offset="0%" style="stop-color:#667eea;stop-opacity:1" />
      <stop offset="100%" style="stop-color:#764ba2;stop-opacity:1" />
    </linearGradient>
  </defs>
  
  <!-- Fundo circular -->
  <circle cx="16" cy="16" r="15" fill="url(#dnaGrad)" stroke="#fff" stroke-width="2"/>
  
  <!-- Hélice dupla DNA -->
  <g fill="#ffffff" stroke="#ffffff" stroke-width="0.5">
    <!-- Fita esquerda -->
    <path d="M8 6 Q12 10 8 14 Q12 18 8 22 Q12 26 8 30" fill="none" stroke-width="2"/>
    <!-- Fita direita -->
    <path d="M24 6 Q20 10 24 14 Q20 18 24 22 Q20 26 24 30" fill="none" stroke-width="2"/>
    
    <!-- Bases nitrogenadas -->
    <line x1="8" y1="8" x2="24" y2="8" stroke-width="1.5"/>
    <line x1="8" y1="12" x2="24" y2="12" stroke-width="1.5"/>
    <line x1="8" y1="16" x2="24" y2="16" stroke-width="1.5"/>
    <line x1="8" y1="20" x2="24" y2="20" stroke-width="1.5"/>
    <line x1="8" y1="24" x2="24" y2="24" stroke-width="1.5"/>
    
    <!-- Pontos nas extremidades -->
    <circle cx="8" cy="8" r="1.5"/>
    <circle cx="24" cy="8" r="1.5"/>
    <circle cx="8" cy="12" r="1.5"/>
    <circle cx="24" cy="12" r="1.5"/>
    <circle cx="8" cy="16" r="1.5"/>
    <circle cx="24" cy="16" r="1.5"/>
    <circle cx="8" cy="20" r="1.5"/>
    <circle cx="24" cy="20" r="1.5"/>
    <circle cx="8" cy="24" r="1.5"/>
    <circle cx="24" cy="24" r="1.5"/>
  </g>
</svg>
